<svg id="visual" viewBox="0 0 960 540" width="960" height="540" xmlns="http://www.w3.org/2000/svg" xmlns:xlink="http://www.w3.org/1999/xlink" version="1.1"><rect x="0" y="0" width="960" height="540" fill="#038373"></rect><path d="M0 352L137 395L274 348L411 336L549 398L686 331L823 319L960 346L960 541L823 541L686 541L549 541L411 541L274 541L137 541L0 541Z" fill="#aed581"></path><path d="M0 426L137 366L274 379L411 362L549 383L686 388L823 410L960 423L960 541L823 541L686 541L549 541L411 541L274 541L137 541L0 541Z" fill="#85c17e"></path><path d="M0 435L137 442L274 419L411 409L549 436L686 434L823 435L960 405L960 541L823 541L686 541L549 541L411 541L274 541L137 541L0 541Z" fill="#5ead7b"></path><path d="M0 453L137 456L274 470L411 439L549 458L686 444L823 444L960 487L960 541L823 541L686 541L549 541L411 541L274 541L137 541L0 541Z" fill="#389878"></path><path d="M0 497L137 508L274 498L411 491L549 508L686 476L823 493L960 513L960 541L823 541L686 541L549 541L411 541L274 541L137 541L0 541Z" fill="#038373"></path></svg>