<svg id="visual" viewBox="0 0 960 540" width="960" height="540" xmlns="http://www.w3.org/2000/svg" xmlns:xlink="http://www.w3.org/1999/xlink" version="1.1"><path d="M0 93L60 93L60 98L120 98L120 23L180 23L180 50L240 50L240 44L300 44L300 104L360 104L360 28L420 28L420 50L480 50L480 77L540 77L540 23L600 23L600 71L660 71L660 44L720 44L720 50L780 50L780 50L840 50L840 93L900 93L900 50L960 50L960 93L960 0L960 0L900 0L900 0L840 0L840 0L780 0L780 0L720 0L720 0L660 0L660 0L600 0L600 0L540 0L540 0L480 0L480 0L420 0L420 0L360 0L360 0L300 0L300 0L240 0L240 0L180 0L180 0L120 0L120 0L60 0L60 0L0 0Z" fill="#0d113f"></path><path d="M0 260L60 260L60 120L120 120L120 195L180 195L180 136L240 136L240 114L300 114L300 260L360 260L360 271L420 271L420 201L480 201L480 266L540 266L540 168L600 168L600 109L660 109L660 77L720 77L720 271L780 271L780 174L840 174L840 233L900 233L900 233L960 233L960 136L960 91L960 48L900 48L900 91L840 91L840 48L780 48L780 48L720 48L720 42L660 42L660 69L600 69L600 21L540 21L540 75L480 75L480 48L420 48L420 26L360 26L360 102L300 102L300 42L240 42L240 48L180 48L180 21L120 21L120 96L60 96L60 91L0 91Z" fill="#0f154b"></path><path d="M0 325L60 325L60 341L120 341L120 325L180 325L180 266L240 266L240 336L300 336L300 347L360 347L360 325L420 325L420 363L480 363L480 330L540 330L540 276L600 276L600 293L660 293L660 266L720 266L720 357L780 357L780 460L840 460L840 428L900 428L900 266L960 266L960 374L960 134L960 231L900 231L900 231L840 231L840 172L780 172L780 269L720 269L720 75L660 75L660 107L600 107L600 166L540 166L540 264L480 264L480 199L420 199L420 269L360 269L360 258L300 258L300 112L240 112L240 134L180 134L180 193L120 193L120 118L60 118L60 258L0 258Z" fill="#121858"></path><path d="M0 336L60 336L60 411L120 411L120 417L180 417L180 336L240 336L240 422L300 422L300 438L360 438L360 352L420 352L420 438L480 438L480 433L540 433L540 336L600 336L600 352L660 352L660 374L720 374L720 390L780 390L780 492L840 492L840 492L900 492L900 309L960 309L960 460L960 372L960 264L900 264L900 426L840 426L840 458L780 458L780 355L720 355L720 264L660 264L660 291L600 291L600 274L540 274L540 328L480 328L480 361L420 361L420 323L360 323L360 345L300 345L300 334L240 334L240 264L180 264L180 323L120 323L120 339L60 339L60 323L0 323Z" fill="#141c64"></path><path d="M0 395L60 395L60 455L120 455L120 487L180 487L180 395L240 395L240 509L300 509L300 449L360 449L360 395L420 395L420 514L480 514L480 465L540 465L540 417L600 417L600 395L660 395L660 455L720 455L720 465L780 465L780 498L840 498L840 514L900 514L900 390L960 390L960 471L960 458L960 307L900 307L900 490L840 490L840 490L780 490L780 388L720 388L720 372L660 372L660 350L600 350L600 334L540 334L540 431L480 431L480 436L420 436L420 350L360 350L360 436L300 436L300 420L240 420L240 334L180 334L180 415L120 415L120 409L60 409L60 334L0 334Z" fill="#171f71"></path><path d="M0 541L60 541L60 541L120 541L120 541L180 541L180 541L240 541L240 541L300 541L300 541L360 541L360 541L420 541L420 541L480 541L480 541L540 541L540 541L600 541L600 541L660 541L660 541L720 541L720 541L780 541L780 541L840 541L840 541L900 541L900 541L960 541L960 541L960 469L960 388L900 388L900 512L840 512L840 496L780 496L780 463L720 463L720 453L660 453L660 393L600 393L600 415L540 415L540 463L480 463L480 512L420 512L420 393L360 393L360 447L300 447L300 507L240 507L240 393L180 393L180 485L120 485L120 453L60 453L60 393L0 393Z" fill="#1a237e"></path></svg>